<svg id="Layer_1" data-name="Layer 1" xmlns="http://www.w3.org/2000/svg" viewBox="0 0 578 299"><defs><style>.cls-1{fill:#fff;}</style></defs><title>alter_ego</title><g id="Bajada-Gotham_Light" data-name="Bajada-Gotham Light"><path class="cls-1" d="M169.35,274.71h-4.59v-.88h10.16v.88h-4.59V287h-1Z"/><path class="cls-1" d="M186.85,287.21a6.35,6.35,0,0,1-2.18-.37,4.77,4.77,0,0,1-1.71-1.09,5.14,5.14,0,0,1-1.12-1.78,7,7,0,0,1-.39-2.45v-7.69h1v7.6a5.15,5.15,0,0,0,1.18,3.62,4.23,4.23,0,0,0,3.28,1.27,5.17,5.17,0,0,0,1.81-.3,3.6,3.6,0,0,0,1.38-.9,4,4,0,0,0,.89-1.51,6.61,6.61,0,0,0,.31-2.09v-7.69h1v7.58a7.31,7.31,0,0,1-.4,2.49,5,5,0,0,1-1.11,1.82,4.65,4.65,0,0,1-1.7,1.11A6.14,6.14,0,0,1,186.85,287.21Z"/><path class="cls-1" d="M209.12,273.83H210l5.29,7.79,5.29-7.79h.92V287h-1V275.56l-5.21,7.58h-.07l-5.22-7.58V287h-.94Z"/><path class="cls-1" d="M229.22,273.83h9.37v.88h-8.4v5.21h7.55v.89h-7.55v5.3h8.49V287h-9.46Z"/><path class="cls-1" d="M248.31,287.19a4,4,0,0,1-2.42-.69,5.41,5.41,0,0,1-1.57-1.78l.81-.51a7.26,7.26,0,0,0,.63.91,3.71,3.71,0,0,0,.72.66,3.13,3.13,0,0,0,.85.39,3.65,3.65,0,0,0,1,.13,2.85,2.85,0,0,0,1.13-.22,2.59,2.59,0,0,0,.91-.67,3.06,3.06,0,0,0,.6-1.1,4.75,4.75,0,0,0,.22-1.53v-8.95h1v8.88a5.65,5.65,0,0,1-.33,2,3.82,3.82,0,0,1-.88,1.41,3.34,3.34,0,0,1-1.21.79A4,4,0,0,1,248.31,287.19Z"/><path class="cls-1" d="M265.7,287.22a6.45,6.45,0,0,1-2.72-.55,6.53,6.53,0,0,1-2.08-1.49,6.72,6.72,0,0,1-1.34-2.15,7.24,7.24,0,0,1-.47-2.58v0a7,7,0,0,1,.48-2.58,6.78,6.78,0,0,1,1.35-2.18,6.72,6.72,0,0,1,7.52-1.49,6.34,6.34,0,0,1,2.09,1.48,6.49,6.49,0,0,1,1.34,2.16,7.16,7.16,0,0,1,.47,2.58,0,0,0,0,1,0,0,7,7,0,0,1-.48,2.59,6.73,6.73,0,0,1-1.35,2.17,6.24,6.24,0,0,1-2.09,1.5A6.58,6.58,0,0,1,265.7,287.22Zm0-.88a5.4,5.4,0,0,0,4-1.72,5.78,5.78,0,0,0,1.16-1.87,6.26,6.26,0,0,0,.41-2.3v0a6.3,6.3,0,0,0-.42-2.3,5.74,5.74,0,0,0-1.17-1.88,5.41,5.41,0,0,0-4-1.74,5.36,5.36,0,0,0-2.25.46,5.3,5.3,0,0,0-1.77,1.26,6,6,0,0,0-1.16,1.87,6.43,6.43,0,0,0-.41,2.3v0a6.32,6.32,0,0,0,.42,2.31,5.92,5.92,0,0,0,1.17,1.88,5.56,5.56,0,0,0,1.78,1.27A5.44,5.44,0,0,0,265.74,286.34Z"/><path class="cls-1" d="M279.43,273.83H285a6.06,6.06,0,0,1,2.17.35,4,4,0,0,1,1.54.95,3.31,3.31,0,0,1,.73,1.1,3.38,3.38,0,0,1,.27,1.34v0a3.69,3.69,0,0,1-.29,1.48,3.61,3.61,0,0,1-.81,1.12,4.48,4.48,0,0,1-1.23.76,6.14,6.14,0,0,1-1.53.4l4.35,5.63h-1.24l-4.2-5.46h-4.31V287h-1Zm5.42,6.83a5.34,5.34,0,0,0,1.53-.21,4,4,0,0,0,1.22-.59,2.92,2.92,0,0,0,.8-.95,2.73,2.73,0,0,0,.29-1.27v0a2.53,2.53,0,0,0-1-2.11,4.41,4.41,0,0,0-2.79-.78h-4.5v6Z"/><path class="cls-1" d="M305.08,273.83h1.09l5.15,12.11,5.18-12.11h1l-5.79,13.26h-.87Z"/><path class="cls-1" d="M324.08,273.83h9.37v.88h-8.39v5.21h7.54v.89h-7.54v5.3h8.48V287h-9.46Z"/><path class="cls-1" d="M340.45,273.83H346a6,6,0,0,1,2.16.35,4.15,4.15,0,0,1,1.55.95,3.47,3.47,0,0,1,.73,1.1,3.37,3.37,0,0,1,.26,1.34v0a3.52,3.52,0,0,1-.29,1.48,3.32,3.32,0,0,1-.81,1.12,4.28,4.28,0,0,1-1.22.76,6.14,6.14,0,0,1-1.53.4l4.34,5.63h-1.24l-4.19-5.46h-4.31V287h-1Zm5.42,6.83a5.34,5.34,0,0,0,1.53-.21,3.79,3.79,0,0,0,1.21-.59,2.81,2.81,0,0,0,.8-.95,2.62,2.62,0,0,0,.29-1.27v0a2.52,2.52,0,0,0-1-2.11,4.42,4.42,0,0,0-2.8-.78h-4.49v6Z"/><path class="cls-1" d="M362.27,287.19a7.42,7.42,0,0,1-2.85-.53,8.87,8.87,0,0,1-2.45-1.58l.64-.73a9.15,9.15,0,0,0,1.08.87,6.13,6.13,0,0,0,2.28,1,7.25,7.25,0,0,0,1.36.12,4.16,4.16,0,0,0,1.35-.2,3.21,3.21,0,0,0,1.06-.54,2.59,2.59,0,0,0,.68-.83,2.3,2.3,0,0,0,.24-1v0a2.5,2.5,0,0,0-.16-.94,1.78,1.78,0,0,0-.58-.75,4.63,4.63,0,0,0-1.14-.62,12,12,0,0,0-1.85-.49,13.64,13.64,0,0,1-2-.58,5,5,0,0,1-1.38-.77,2.61,2.61,0,0,1-.78-1,3.52,3.52,0,0,1-.25-1.34v0a3,3,0,0,1,.32-1.36,3.48,3.48,0,0,1,.89-1.1,4.09,4.09,0,0,1,1.33-.74,5.41,5.41,0,0,1,1.7-.26,7,7,0,0,1,2.47.39,7.46,7.46,0,0,1,2,1.21l-.62.77a5.64,5.64,0,0,0-3.93-1.49,4.27,4.27,0,0,0-1.33.2,3.14,3.14,0,0,0-1,.54,2.33,2.33,0,0,0-.65.79,2.12,2.12,0,0,0-.23,1v0a2.87,2.87,0,0,0,.16.95,1.9,1.9,0,0,0,.59.77,4.2,4.2,0,0,0,1.17.63,12.8,12.8,0,0,0,1.92.52,7.67,7.67,0,0,1,3.31,1.33,2.86,2.86,0,0,1,1,2.31v0a3.23,3.23,0,0,1-.33,1.46,3.35,3.35,0,0,1-.9,1.14,4.22,4.22,0,0,1-1.38.73A5.46,5.46,0,0,1,362.27,287.19Z"/><path class="cls-1" d="M373.75,273.83h1V287h-1Z"/><path class="cls-1" d="M388.56,287.22a6.45,6.45,0,0,1-2.72-.55,6.53,6.53,0,0,1-2.08-1.49,6.72,6.72,0,0,1-1.34-2.15,7.24,7.24,0,0,1-.47-2.58v0a7,7,0,0,1,.48-2.58,6.78,6.78,0,0,1,1.35-2.18,6.36,6.36,0,0,1,2.09-1.49,6.86,6.86,0,0,1,5.43,0,6.34,6.34,0,0,1,2.09,1.48,6.66,6.66,0,0,1,1.34,2.16,7.16,7.16,0,0,1,.47,2.58,0,0,0,0,1,0,0,7,7,0,0,1-.48,2.59,6.73,6.73,0,0,1-1.35,2.17,6.24,6.24,0,0,1-2.09,1.5A6.58,6.58,0,0,1,388.56,287.22Zm0-.88a5.4,5.4,0,0,0,4-1.72,5.78,5.78,0,0,0,1.16-1.87,6.47,6.47,0,0,0,.41-2.3v0a6.3,6.3,0,0,0-.42-2.3,5.74,5.74,0,0,0-1.17-1.88,5.6,5.6,0,0,0-6.28-1.28,5.2,5.2,0,0,0-1.77,1.26,5.78,5.78,0,0,0-1.16,1.87,6.43,6.43,0,0,0-.41,2.3v0a6.32,6.32,0,0,0,.42,2.31,5.74,5.74,0,0,0,1.17,1.88,5.46,5.46,0,0,0,4,1.74Zm1.34-16.24,1.15.57-2,1.94h-.79Z"/><path class="cls-1" d="M402.29,273.83h.92l9.09,11.46V273.83h.94V287h-.73l-9.28-11.7V287h-.94Z"/></g><polygon class="cls-1" points="98.31 157.91 85.01 157.91 85.01 237.45 127.74 237.45 127.74 224.16 98.31 224.16 98.31 157.91"/><polygon class="cls-1" points="131.95 170.06 148.65 170.06 148.65 237.45 161.84 237.45 161.84 170.06 178.54 170.06 178.54 157.91 131.95 157.91 131.95 170.06"/><path class="cls-1" d="M314.57,181.09c0-23.19-26.59-23.19-26.59-23.19H261.5v79.55h13.3V204.27h10.79l15.23,33.18h14.66l-16.25-35.22C306.39,199.61,314.57,193.93,314.57,181.09Zm-26.59,10H274.8V171.2H288s13.3,0,13.3,9.89S288,191.09,288,191.09Z"/><path class="cls-1" d="M41.6,155.63,9.9,237.45H24.21l3.41-9.2h28l3.52,9.2H73.42Zm-9.66,61.14,9.66-27.61,9.66,27.61Z"/><rect class="cls-1" x="32.06" y="145.42" width="19.21" height="6.51"/><path class="cls-1" d="M439.28,192.4v11.69h21.06v12.33a26,26,0,0,1-19.81,8.94c-16.76,0-26.37-10-26.37-27.51,0-16.2,10.84-27.51,26.37-27.51a26.51,26.51,0,0,1,17.06,6.21l1.7,1.42,9.29-9.28L466.67,167a39.6,39.6,0,0,0-54.16,1.64,41.14,41.14,0,0,0-11.62,29.23c0,12.38,3.8,22.79,11,30.11,6.74,6.88,16.32,10.67,26.95,10.67,9.57,0,16.3-2.47,22.53-8.26l.68,7.24h11.57V192.4Z"/><path class="cls-1" d="M558.67,170.29c-7.09-8.57-17.32-13.11-29.6-13.11s-22.61,4.53-29.73,13.1a43.1,43.1,0,0,0-9.48,27.6c0,10.65,3.48,20.57,9.8,27.94,7.12,8.3,17.29,12.69,29.41,12.69s22.19-4.39,29.28-12.69c6.29-7.37,9.75-17.29,9.75-27.94A43.15,43.15,0,0,0,558.67,170.29Zm-29.6-.18c7.95,0,14.62,3,19.29,8.69a30,30,0,0,1,6.43,19.11c0,13.81-8.83,27.79-25.72,27.79-7.94,0-14.61-3-19.27-8.67a30,30,0,0,1-6.42-19.09C503.38,184.11,512.21,170.11,529.07,170.11Z"/><polygon class="cls-1" points="371.47 191.09 371.47 191.09 341.28 191.09 341.28 204.27 371.47 204.27 371.47 224.16 331.7 224.16 331.7 237.45 384.77 237.45 384.77 157.91 331.7 157.91 331.7 171.2 371.47 171.2 371.47 191.09"/><polygon class="cls-1" points="205.47 204.27 235.67 204.27 235.67 191.09 205.47 191.09 205.47 171.2 245.25 171.2 245.25 157.91 192.18 157.91 192.18 237.45 245.25 237.45 245.25 224.16 205.47 224.16 205.47 204.27"/><polygon class="cls-1" points="309.81 24.84 294.81 24.84 294.81 57.04 283.19 57.04 283.19 24.84 268.19 24.84 268.19 72.17 289.01 98.07 309.81 72.18 309.81 24.84"/><rect class="cls-1" x="243.74" y="11.78" width="14.89" height="60.39"/><rect class="cls-1" x="319.13" y="11.78" width="15.13" height="60.39"/></svg>