<svg id="Capa_1" data-name="Capa 1" xmlns="http://www.w3.org/2000/svg" viewBox="0 0 438.53 438.53"><defs><style>.cls-1{fill:#fff;}</style></defs><title>play-circle</title><path class="cls-1" d="M409.13,109.2a218.26,218.26,0,0,0-79.8-79.79Q278.95,0,219.27,0T109.21,29.41a218.26,218.26,0,0,0-79.8,79.79Q0,159.6,0,219.27T29.41,329.33a218.29,218.29,0,0,0,79.8,79.8q50.39,29.4,110.06,29.4t110.06-29.4a218.36,218.36,0,0,0,79.8-79.8q29.4-50.4,29.4-110.06T409.13,109.2Zm-55.39,188a154.72,154.72,0,0,1-56.53,56.53,151.74,151.74,0,0,1-77.94,20.84,151.74,151.74,0,0,1-77.94-20.84A154.79,154.79,0,0,1,84.8,297.21,151.74,151.74,0,0,1,64,219.27a151.88,151.88,0,0,1,20.84-78,154.87,154.87,0,0,1,56.53-56.53A151.84,151.84,0,0,1,219.27,64a151.84,151.84,0,0,1,77.94,20.84,154.79,154.79,0,0,1,56.53,56.53,151.8,151.8,0,0,1,20.84,78A151.74,151.74,0,0,1,353.74,297.21Z"/><path class="cls-1" d="M328.91,203.56,173.59,112.2q-8.84-5.43-18.27-.28a17.47,17.47,0,0,0-9.14,16V310.63a17.47,17.47,0,0,0,9.14,16,20.33,20.33,0,0,0,9.14,2.29,17.47,17.47,0,0,0,9.13-2.57L328.91,235q9.13-5.15,9.14-15.7T328.91,203.56Z"/></svg>